<?xml version="1.0" encoding="UTF-8"?>
<svg id="Layer_1" data-name="Layer 1" fill="white" xmlns="http://www.w3.org/2000/svg" viewBox="0 0 1313.41 1124.81">
  <path d="M1125.09,347.2c-99.56-13.05-186.1,13.2-256.7,83.91-70.46,70.57-96.63,156.99-83.48,256.33h-5.12c-181.17,0-362.33,.02-543.5-.01-55.61,0-100.36-37.55-109.81-92.19-1.04-6.04-1.34-12.27-1.34-18.41-.07-155.5-.1-311-.03-466.5,.03-56.48,40.66-102.58,96.43-109.62C226.48,.09,231.52,.03,236.51,.03,495.51,0,754.51,0,1013.51,0c55.79,0,99.77,36.45,109.97,91.28,1.12,6.02,1.53,12.25,1.54,18.39,.1,77.67,.07,155.33,.07,233,0,1.47,0,2.94,0,4.52Zm183.22,249.48c-2.33-16.92-11.76-28.57-28.08-33.62-16.62-5.15-31.06-.71-43.29,11.74-15.3,15.57-30.87,30.88-46.33,46.29-16.17,16.11-32.02,32.58-48.62,48.24-34.22,32.28-91.08,19.71-106.22-23.75-9.62-27.63-3.02-52.63,16.8-73.87,10.79-11.57,22.33-22.44,33.54-33.62,19.58-19.54,39.29-38.95,58.69-58.67,11.39-11.58,14.52-25.69,9.81-41.07-4.63-15.09-15.13-24.65-30.66-27.64-41.74-8.04-82.93-5.6-123.15,8.37-123.03,42.72-187.2,177.75-142.76,300.26,1.42,3.91,.74,6.19-2.12,9.03-76.98,76.68-153.86,153.45-230.76,230.21-24.52,24.47-34.6,53.9-30.08,88.25,5.36,40.73,41.76,74.65,82.83,77.68,31.64,2.33,57.78-8.48,80.09-30.86,76.94-77.19,154.21-154.04,231.25-231.13,3.04-3.04,5.35-3.54,9.4-2.1,57.31,20.34,114.96,20.86,170.54-3.86,92.53-41.15,138.77-114.65,144.22-216.91-1.55-13.25-3.06-28.14-5.1-42.96Zm-537.31,121.94c-240.63,0-481.25,0-721.88,.06-4.3,0-8.7,.38-12.87,1.37-23.06,5.47-38.52,27.18-35.99,50.16,2.72,24.66,22.61,42.21,48.16,42.21,210.13,.03,420.26,.03,630.39-.11,2.45,0,5.51-1.32,7.26-3.06,28.91-28.59,57.66-57.34,86.44-86.07,1.15-1.15,2.23-2.38,4.28-4.56h-5.8Z"/>
</svg>