<?xml version="1.0" encoding="UTF-8"?>
<svg id="Layer_1" data-name="Layer 1" fill="white" xmlns="http://www.w3.org/2000/svg" viewBox="0 0 1311.66 904.95">
  <path d="M1311.66,470.3c-1.75,131.25-48.31,264.18-142.87,379.81-9.59,11.73-19.85,22.93-30.25,33.96-18.31,19.4-46.15,25.02-70.22,14.64-24.13-10.41-39.07-34.43-37.6-61.1,.83-14.99,6.45-28.15,16.85-39.07,27.33-28.72,51.3-59.98,71.31-94.23,32.46-55.55,54.02-115.05,62.72-178.81,19.9-145.84-16.48-276.28-108.79-390.98-8.14-10.11-17.13-19.54-25.89-29.15-23.54-25.81-22.48-64.7,2.49-88.14,25.41-23.85,64.23-22.85,88.49,2.51,73.05,76.36,123.66,165.49,151.62,267.42,14.85,54.11,22.02,109.28,22.13,183.15ZM243.08,898.37c39.22-16.77,49.72-67.04,21.37-99.09-15-16.96-30.43-33.72-43.65-52.03-79.77-110.48-110-233.55-91.25-368.47,8.17-58.79,27.25-114.09,55.7-166.17,21.54-39.42,48.41-74.86,79.14-107.57,23.54-25.06,22.26-63.74-2.15-87.38-24.53-23.77-63.22-23.4-87.8,.97-5.79,5.74-11.34,11.76-16.69,17.92C35.41,177.23-15.19,340.64,3.93,525.69c5.79,56.08,20.32,110.2,41.6,162.46,29.93,73.52,72.45,138.86,127.3,196.2,12.39,12.95,27.71,19.2,45.9,20.6,8.14-2.14,16.7-3.31,24.36-6.58Zm42.93-384.28c12.95,77.66,47.2,144.73,102.27,201.09,15.1,15.45,33.43,21.81,54.9,19.08,32.29-4.12,56.86-36.05,52.84-68.35-1.91-15.34-8.51-28.07-19.28-39.06-71.41-72.87-91.33-179.68-51.11-273.39,12.43-28.97,30.17-54.3,52.07-76.93,21.03-21.73,23.78-54.01,7.2-78.53-22.73-33.63-68.95-37.27-97.84-7.3-70.37,73-104.78,160.71-106.7,269.75,1.28,12.62,2.26,33.33,5.65,53.64Zm732.54-155.46c-16.73-65.17-48.83-121.73-96.07-169.63-18.38-18.64-45.59-23.71-69.18-13.43-23.63,10.3-38.52,33.71-37.6,59.67,.63,17.7,8.79,31.75,20.7,44.64,61.01,65.99,82.03,143.28,62.48,230.93-10.13,45.43-33.02,84.35-65.74,117.46-12.05,12.19-18.2,26.96-18.37,44.03-.25,25.24,15.36,48.35,38.74,57.95,23.71,9.74,50.46,4.33,68.61-14.29,71.42-73.26,106.63-161.45,108.31-251.51,.04-42.81-3.66-73.76-11.89-105.82Zm-363.08,187.46c51.57,.08,93.86-42.1,93.93-93.71,.08-51.59-42.08-93.85-93.71-93.92-51.6-.07-93.85,42.07-93.92,93.7-.07,51.6,42.07,93.85,93.7,93.93Z"/>
</svg>