<?xml version="1.0" encoding="UTF-8"?>
<svg id="Layer_1" data-name="Layer 1" fill="white" xmlns="http://www.w3.org/2000/svg" viewBox="0 0 1500 1312.68">
  <path d="M0,833.32c1.62-7.94,2.74-16.03,4.93-23.81,13.79-49.23,58.24-86.26,107.81-90.13,54.22-4.23,103.05,23.56,125.2,71.59,2.14,4.64,4.45,6.26,9.56,6.15,16.99-.34,33.99-.34,50.97,0,22.49,.46,40.3,15.51,45,37.49,5.82,27.22-14.71,54.6-42.49,55.72-18.46,.74-36.98,.35-55.47,.24-3.52-.02-5.18,1.09-6.65,4.34-22.39,49.7-74.67,79.61-127.61,73.2-54.81-6.63-98.2-46.5-108.93-100.13-.91-4.53-1.55-9.11-2.32-13.67,0-7,0-14,0-21Zm1500,0c-.77-4.55-1.42-9.13-2.33-13.65-10.76-53.7-54.13-93.56-108.91-100.15-53.03-6.38-105.16,23.43-127.63,73.17-1.46,3.23-3.06,4.41-6.62,4.38-18.32-.14-36.67-.48-54.97,.17-28.31,1.01-49.05,28.57-42.9,56.22,4.82,21.72,22.54,36.58,44.86,37.05,16.99,.35,33.99,.34,50.97,.01,5.07-.1,7.43,1.45,9.59,6.11,22.31,48.27,72.14,76.5,125.68,71.58,51.66-4.75,95.82-43.11,108.5-94.41,1.59-6.41,2.52-12.99,3.76-19.49v-21ZM281.33,497.2c.33,23.96,1.39,47.98,3.75,71.81,5.37,54.02,19.23,106,40.45,155.97,40.44,95.26,103.82,172.76,184.18,236.98,67.37,53.84,142.26,94.75,221.57,127.94,12.61,5.28,25.26,5.1,37.88-.18,43.5-18.2,85.8-38.82,126.41-62.81,72.13-42.61,137.14-93.86,190.88-158.55,85.14-102.48,130-220.44,131.96-353.64,1.51-102.8,.4-205.64,.41-308.46,0-30.03-19.6-49.71-49.71-49.93-50.82-.36-100.48-8.42-149.09-22.86-87.92-26.11-168.08-67.51-240.9-123.2-17.81-13.62-40.58-13.77-58.28,.06-39.39,30.78-81.8,56.73-126.62,78.7-76.69,37.59-156.94,62.49-242.83,66.65-9.65,.47-19.41-.12-28.94,1.13-24.92,3.27-41.23,22.69-41.26,48.43-.07,54.99-.02,109.99-.02,164.98,0,42.33-.42,84.66,.16,126.98Zm407.65,85.38c.04-3.71-.91-5.88-4.27-7.95-44.52-27.44-66.94-78.12-57.56-129.59,9.02-49.51,48.2-89.14,98.28-99.43,71.59-14.71,141.82,36.51,148.58,109.36,4.77,51.41-15.67,91.38-58.75,119.67-3.25,2.14-4.26,4.25-4.25,7.96,.13,34.99,.13,69.98,.06,104.97-.07,33.02-22.39,58.13-55.11,62.16-33.67,4.15-66.11-23.61-66.92-57.68-.43-18.32-.08-36.65-.08-54.98h-.06c0-18.16-.1-36.32,.08-54.48Zm422.15,511.31c12.5,0,24.99-.13,37.48,.12,2.21,.04,4.93,1.1,6.49,2.63,13.34,13.04,26.43,26.35,39.72,39.44,2.14,2.11,2.34,3.84,1.28,6.55-7.74,19.78-9.96,40.24-7.31,61.3,8.71,69.1,74.37,118.3,143.11,107.19,67.6-10.93,113.59-73.06,104.29-140.87-10.88-79.26-93.69-128.35-167.92-99.43-3.53,1.38-5.48,.94-8.09-1.7-18.02-18.27-36.23-36.34-54.36-54.49-9.25-9.25-20.3-14.4-33.47-14.42-32.15-.05-64.31-.27-96.46,.08-24.81,.27-44.59,20.58-45.19,45.54-.6,24.75,17.98,45.98,42.48,47.55,12.61,.81,25.31,.14,37.96,.14,0,.12,0,.25,0,.37Zm-722.56-.39c12.82,0,25.7,.72,38.46-.15,27.47-1.87,47.18-28.82,41.4-55.68-4.77-22.15-22.87-37.27-45.55-37.45-30.65-.23-61.31,.1-91.97-.16-15.05-.13-27.48,5.03-38.01,15.73-17.52,17.82-35.36,35.33-52.91,53.11-2.67,2.71-4.7,3.43-8.51,1.93-19.44-7.61-39.66-10.13-60.33-7.19-69.8,9.92-116.62,71.85-107.32,141.64,9.09,68.22,74.9,116.97,142.78,105.79,79.06-13.02,125.51-93.19,97.36-168.17-1.08-2.88-.94-4.72,1.35-6.97,13.19-12.96,26.14-26.17,39.37-39.08,1.67-1.63,4.54-2.79,6.89-2.84,12.32-.28,24.65-.13,36.98-.13,0-.13,0-.26,0-.39Z"/>
</svg>